<svg xmlns="http://www.w3.org/2000/svg" viewBox="0 0 352.5 326.2" style="enable-background:new 0 0 352.5 326.2" xml:space="preserve"><style>.st2{fill:#fff}.st3{fill:#00b861}.st5{fill:#484848}.st7{fill:#111}</style><g id="Layer_1"><path d="M236.6 73.8v82.9c0 10.2-8.2 18.4-18.4 18.4H139c-10.2 0-18.4-8.2-18.4-18.4v-106c0-10.2 8.2-18.4 18.4-18.4h55.7c3.9 0 7.6 1.5 10.4 4.3l27.5 27.5c2.5 2.6 4 6.1 4 9.7z" style="fill:#abd9ff"/><path d="M236.6 73.8v1.9h-24.7c-10.2 0-18.4-8.2-18.4-18.4V32.4h1.3c3.9 0 7.6 1.5 10.4 4.3l27.5 27.5c2.4 2.5 3.9 6 3.9 9.6z" style="fill:#40b4f4"/><path class="st2" d="M199.9 99.8h-27.4c-2.5 0-4.5-2-4.5-4.5s2-4.5 4.5-4.5h27.4c2.5 0 4.5 2 4.5 4.5 0 2.4-2 4.5-4.5 4.5zM210.5 122.8h-38c-2.5 0-4.5-2-4.5-4.5s2-4.5 4.5-4.5h38c2.5 0 4.5 2 4.5 4.5s-2 4.5-4.5 4.5zM199.9 145.9h-27.4c-2.5 0-4.5-2-4.5-4.5s2-4.5 4.5-4.5h27.4c2.5 0 4.5 2 4.5 4.5s-2 4.5-4.5 4.5z"/><path class="st3" d="m159.5 86.8-9.4 9.4-4.6-4.6-3.4 3.4 7.9 8 12.7-12.8-3.2-3.4zM160.2 133.1l-9.4 9.4-4.6-4.6-3.4 3.4 7.9 8 12.7-12.8-3.2-3.4z"/><path d="m157.8 126.8-5.6-5.6-5.6 5.6-3.3-3.3 5.6-5.6-5.6-5.6 3.3-3.3 5.6 5.6 5.6-5.6 3.3 3.3-5.6 5.6 5.6 5.6-3.3 3.3z" style="fill:red"/><path class="st2" d="M113.2 274.5h-6.3c-.8 0-1.5.7-1.5 1.5v2.4c0 .8.7 1.5 1.5 1.5h2.2v2h-.1c-.4.1-.9.1-1.5.1-1.1 0-1.9-.2-2.6-.6-.6-.4-1-.9-1.3-1.7-.3-.8-.5-1.8-.5-2.9 0-1.7.4-2.9 1.3-3.9 1-1.1 2.4-1.3 3.5-1.3.7 0 1.3.1 1.9.2.6.2 1.3.4 1.7.6.4.2.8.2 1.2.1s.7-.4.9-.8l1-2.2c.3-.7.1-1.5-.6-1.9-.9-.5-1.8-.7-2.8-1-1-.2-2-.3-3.1-.3-2.1 0-3.9.4-5.6 1.3-1.6.8-2.8 2-3.7 3.7-.8 1.6-1.3 3.4-1.3 5.4 0 3.2.8 5.7 2.5 7.6 1.7 1.9 4.1 2.9 7.2 2.9 1.3 0 2.4 0 3.6-.2l.4-.1c.8-.2 1.7-.4 2.5-.7.6-.2 1-.8 1-1.4V276c0-.9-.7-1.5-1.5-1.5zM130.4 270.7h-2.3v-1.5c0-.8-.7-1.5-1.5-1.5H125c-.7 0-1.2.4-1.4 1l-.7 2.2-1.4.7c-.1.1-.2.2-.3.2-.1-.5-.4-.9-.8-1.1.6-.5.9-1.2.9-2.3 0-1.1-.4-1.9-1.1-2.3-.6-.4-1.2-.6-1.8-.6-.5 0-.9.2-1.2.3-.1 0-.2.1-.2.1-.2 0-.3.1-.5.2-.7.5-1.1 1.3-1.1 2.3 0 1 .3 1.8.9 2.3-.5.3-.8.7-.8 1.3v13.2c0 .8.7 1.5 1.5 1.5h2.6c.8 0 1.5-.7 1.5-1.5V275c.3.2.6.4 1 .4h.3v5.8c0 1.1.1 2.3.7 3.3.5.9 1.2 1.6 2.1 1.9.7.3 1.6.5 2.6.5.5 0 1 0 1.8-.1.4-.1.9-.2 1.2-.3.6-.2 1-.8 1-1.4v-2c0-.5-.3-1-.7-1.3-.4-.3-.9-.3-1.4-.1h-.1c-.2 0-.4.1-.7.1h-.8c-.1-.1-.1-.3-.1-.6v-5.7h2.3c.8 0 1.5-.7 1.5-1.5v-2c.1-.7-.6-1.3-1.4-1.3zM147 266.5h-2.6c-.8 0-1.5.7-1.5 1.5v5.7h-5.3V268c0-.8-.7-1.5-1.5-1.5h-2.6c-.8 0-1.5.7-1.5 1.5v17.4c0 .8.7 1.5 1.5 1.5h2.6c.8 0 1.5-.7 1.5-1.5v-6.5h5.3v6.5c0 .8.7 1.5 1.5 1.5h2.6c.8 0 1.5-.7 1.5-1.5V268c0-.9-.7-1.5-1.5-1.5zM162.7 270.7c-.3 0-.5.1-.7.2h-1.9c-.8 0-1.5.7-1.5 1.5v6.7c0 1.1-.2 2-.6 2.6-.1.1-.3.5-1.5.5-.6 0-1.2 0-1.2-1.6v-8.2c0-.8-.7-1.5-1.5-1.5h-2.6c-.8 0-1.5.7-1.5 1.5v8.6c0 2.1.6 3.8 1.7 4.7 1.1 1 2.7 1.5 4.5 1.5 1 0 2-.2 2.9-.6l.6-.3c.3.3.7.6 1.2.6h2.1c.8 0 1.5-.7 1.5-1.5v-13.2c0-.9-.7-1.5-1.5-1.5zM173.3 270.4c-.7 0-1.6.1-2.5.4v-4c0-.8-.7-1.5-1.5-1.5h-2.6c-.8 0-1.5.7-1.5 1.5v18.5c0 .8.7 1.5 1.5 1.5h1.9c.5 0 1-.2 1.2-.6l.1.1c.1 0 .1.1.2.1.8.4 2 .7 3.2.7 1.9 0 3.6-.8 4.9-2.2 1.3-1.4 1.9-3.4 1.9-6.1s-.6-4.7-1.8-6c-1.2-1.7-2.9-2.4-5-2.4zm1.2 8.4c0 1.1-.2 2.1-.5 2.7-.3.4-.7.5-1.2.5-1.1 0-1.4-.4-1.4-.5-.2-.3-.5-1.1-.5-2.7v-.2c0-1.8.3-2.4.4-2.5.1-.1.3-.5 1.4-.5.5 0 1.7 0 1.8 3.2zM229.7 268.6c0-1.1-.4-1.9-1.1-2.3-.6-.4-1.2-.6-1.8-.6-.6 0-1.1.2-1.4.3l-.2.1c-.1 0-.2.1-.4.2-.7.5-1.1 1.3-1.1 2.3 0 1 .3 1.8.9 2.3-.3.1-.5.4-.6.6-.3-.5-.7-.8-1.3-.8h-2.3v-1.5c0-.8-.7-1.5-1.5-1.5h-1.6c-.7 0-1.2.4-1.4 1l-.7 2.2-1.1.6-.2-.2c-.4-.2-.8-.3-1.2-.4-.2-.1-.4-.1-.6-.2-.1 0-.2 0-.3-.1-.7-.1-1.5-.2-2.3-.2-1.5 0-2.8.3-3.9.9-1.2.5-2.2 1.6-2.9 2.9-.6 1.4-.9 2.9-.9 4.6 0 .8.1 1.6.2 2.3l-5.2-13.8c-.2-.6-.8-1-1.4-1h-2.7c-.6 0-1.2.4-1.4 1l-6.6 17.5c-.2.5-.1 1 .2 1.4.3.4.7.6 1.2.6h2.7c.6 0 1.2-.4 1.4-1l1.5-4h4.6l1.5 4c.2.6.8 1 1.4 1h2.7c.5 0 1-.2 1.2-.6.3-.4.3-.9.2-1.4l-.4-.9c.3.4.6.8.9 1.1 1.4 1.4 3.2 2 5.5 2 .9 0 1.6 0 2.3-.3.6-.1 1.2-.4 1.8-.7.5-.3.7-.8.7-1.3v-2.2c0-.5-.3-1-.7-1.3-.4-.3-1-.3-1.5-.1-.3.2-.7.3-1.2.5-.3.1-.9.2-1.5.2-.8 0-1.1-.2-1.4-.6-.4-.5-.6-1.4-.6-2.5 0-3.2 1.4-3.2 2.1-3.2.3 0 .7.1 1.1.2.2.1.4.1.5.2.3.1.5.2.8.3.4.1.8.1 1.2 0 .3-.2.6-.4.8-.8.2.1.5.2.7.2h.3v5.8c0 1.1.1 2.3.7 3.3.5.9 1.2 1.6 2.1 1.9.7.3 1.6.5 2.6.5.5 0 1 0 1.8-.1.4-.1.9-.2 1.2-.3.3-.1.6-.3.8-.6.2.5.8.9 1.4.9h2.6c.8 0 1.5-.7 1.5-1.5v-13.2c0-.6-.3-1.1-.8-1.3.8-.6 1.1-1.4 1.1-2.4zm-35.6 6.6.5 1.4h-1l.5-1.4zm29.5 6.7c-.4-.3-.9-.3-1.4-.1h-.1c-.2 0-.4.1-.6.1H220.6c-.1-.1-.1-.3-.1-.6v-5.7h2.3c.4 0 .8-.2 1.1-.5v7c-.1 0-.2-.1-.3-.2zM241.4 271.6c-1.2-.6-2.5-1-3.9-1-2.3 0-4.2.8-5.6 2.2-1.4 1.4-2.1 3.5-2.1 6.1 0 1.7.3 3.1 1 4.4 0 0 0 .1.1.1.8 1.3 1.7 2.2 2.8 2.9 1.3.7 2.5 1 3.9 1 2.3 0 4.2-.8 5.6-2.3 1.4-1.5 2.1-3.6 2.1-6.1 0-1.7-.3-3.1-1-4.4-.9-1.4-1.8-2.4-2.9-2.9zm-5.4 4.5c.2-.2.6-.5 1.4-.5 1 0 1.3.3 1.5.5.4.7.6 1.5.6 2.7 0 1.3-.2 2.2-.5 2.6-.2.3-.6.6-1.5.6-.8 0-1.2-.3-1.4-.5-.4-.7-.6-1.6-.6-2.7s.2-1.9.5-2.7zM258.1 271.9c-1.1-1-2.7-1.5-4.5-1.5-.8 0-1.6.2-2.4.3l-.5.1c-.1 0-.2.1-.3.1-.1.1-.3.1-.4.2-.3-.4-.7-.6-1.2-.6h-2c-.8 0-1.5.7-1.5 1.5v13.2c0 .8.7 1.5 1.5 1.5h2.6c.8 0 1.5-.7 1.5-1.5v-6.6c0-1.1.2-2 .6-2.6.1-.1.3-.5 1.5-.5.6 0 1.2 0 1.2 1.6v8.2c0 .8.7 1.5 1.5 1.5h2.6c.8 0 1.5-.7 1.5-1.5v-8.6c0-2-.5-3.6-1.7-4.8.1.1 0 .1 0 0zM54.8 210.8h-7.7c-.8 0-1.5.7-1.5 1.5V243c0 .8.7 1.5 1.5 1.5h7.7c.8 0 1.5-.7 1.5-1.5v-30.7c0-.8-.7-1.5-1.5-1.5zM69.7 215.1c0-2.4-1.1-3.5-2-4.1-1-.6-2.3-.9-3.6-.9-1.4 0-2.6.3-3.6.9-.9.5-1.9 1.6-1.9 4 0 2.3 1 3.5 1.9 4 .1 0 .1.1.2.1h-.4c-.8 0-1.5.7-1.5 1.5V243c0 .8.7 1.5 1.5 1.5H68c.8 0 1.5-.7 1.5-1.5v-22.3c0-.8-.7-1.5-1.5-1.5h-.4c.1 0 .1-.1.1-.1.9-.5 2-1.6 2-4zM87.2 218.8c-1.8 0-3.4.4-4.7 1.1-.6.3-1.2.7-1.7 1.1l-.3-.8c-.2-.6-.8-1-1.4-1h-5.8c-.8 0-1.5.7-1.5 1.5V243c0 .8.7 1.5 1.5 1.5H81c.8 0 1.5-.7 1.5-1.5v-9.8c0-2 .2-3.5.6-4.5.2-.4.5-.9 1.5-.9.5 0 .6.2.8.4.2.4.4 1.1.4 2.6V243c0 .8.7 1.5 1.5 1.5H95c.8 0 1.5-.7 1.5-1.5v-14.5c0-3.3-.9-5.8-2.7-7.4-1.7-1.5-3.9-2.3-6.6-2.3zM98.7 227.9h1.2v7.7c0 2.3.4 4.1 1.1 5.4.8 1.4 1.9 2.4 3.3 3 1.3.5 2.7.8 4.4.8 1.6 0 2.9-.1 4-.4 1-.3 2-.6 2.9-1 .6-.2.9-.8.9-1.4v-5.5c.2.1.4.1.6.1h11.1c.3 0 .6-.1.8-.2.1 2.7.9 4.8 2.4 6.2 1.6 1.4 3.5 2.2 5.9 2.2 1.4 0 2.5-.1 3.5-.4 1-.3 2-.7 2.8-1.3.3-.2.5-.4.8-.6l.6 1.1c.3.5.8.8 1.3.8h5.3c.8 0 1.5-.7 1.5-1.5v-14.6c0-3-1-5.4-2.9-7.1-1.9-1.6-4.4-2.5-7.6-2.5-2.1 0-4.1.2-5.8.5-1.8.4-3.4.9-4.8 1.7-.7.4-1 1.2-.7 1.9l2.2 5.1c.1.2.3.4.5.6-.7.3-1.4.6-1.9 1-1.1.8-1.9 1.8-2.4 2.9V229c0-.8-.7-1.5-1.5-1.5H117c-.8 0-1.5.7-1.5 1.5v6.1c-.3-.1-.7-.2-1.1 0-.6.2-1.1.4-1.7.5-.5.1-1 .2-1.5.2s-.6 0-.6-.7v-7.2h4c.8 0 1.5-.7 1.5-1.5v-5.8c0-.8-.7-1.5-1.5-1.5h-4v-3c0-.8-.7-1.5-1.5-1.5h-5c-.6 0-1.1.4-1.4.9l-1.8 4.3-3.1 2.2c-.4.3-.6.7-.6 1.2v3.1c0 1 .6 1.6 1.5 1.6zm43.7 6.7v.2c0 .5-.2.9-.5 1.2-.4.3-.8.5-1.4.5-.3 0-.5-.1-.6-.2 0 0-.1-.2-.1-.6 0-.4.1-.6.3-.7.1-.1.6-.4 2.1-.4h.2zm-1.3-7.4c.3 0 .6 0 .8.1l-1.9.1h-.8c.8-.1 1.4-.2 1.9-.2zM189.6 249.8c1-1.3 1.8-3 2.6-4.9l8.6-23.1V243c0 .8.7 1.5 1.5 1.5h7.7c.8 0 1.5-.7 1.5-1.5v-9.8c0-2 .2-3.5.6-4.5.2-.4.5-.9 1.5-.9.5 0 .6.2.8.4.2.4.4 1.1.4 2.6V243c0 .8.7 1.5 1.5 1.5h7.7c.8 0 1.5-.7 1.5-1.5v-14.5c0-3.3-.9-5.8-2.7-7.4-1.7-1.5-4-2.3-6.6-2.3-1.8 0-3.4.4-4.7 1.1-.6.3-1.2.7-1.7 1.1l-.3-.8c-.2-.6-.8-1-1.4-1h-5.8c-.6 0-1.1.3-1.3.8 0-.1-.1-.1-.1-.2-.3-.4-.7-.6-1.2-.6h-7.9c-.7 0-1.2.4-1.4 1.1l-2.9 9.7-2.9-9.7c-.2-.6-.8-1.1-1.4-1.1h-8.1c-.5 0-1 .2-1.2.7-.2.2-.2.5-.2.8-1.3-.6-2.7-1-3.9-1.3-1.4-.4-2.9-.5-4.5-.5-3.1 0-5.6.6-7.5 1.9-2.1 1.4-3.2 3.5-3.2 6.2 0 2.2.6 4 1.8 5.3 1.1 1.2 2.6 2.2 4.7 3.1 1.1.5 2 .8 2.7 1.1-.7 0-1.7-.1-3-.4-1.3-.3-2.7-.7-4-1.3-.5-.2-1-.2-1.4.1-.4.3-.7.8-.7 1.3v6.2c0 .6.4 1.2 1 1.4 1.4.5 2.8.9 4.1 1.1 1.3.2 2.8.3 4.5.3 2.5 0 4.5-.3 6.1-1.1 1.7-.7 2.9-1.8 3.7-3.2.8-1.3 1.1-2.8 1.1-4.5 0-1.5-.3-2.9-.8-3.9-.5-1.1-1.3-2-2.4-2.7-.9-.7-2.1-1.3-3.5-1.8-.1 0-.2-.1-.3-.1.9.3 1.7.6 2.5 1 .4.2.8.2 1.2 0s.7-.4.8-.8l1.9-4.4 7.8 19.4c-.3.7-.7 1.3-1.1 1.8-.1.1-.5.6-1.6.6-.4 0-.8 0-1.1-.1-.4-.1-.7-.1-1-.2-.4-.1-.9 0-1.2.3-.3.3-.5.7-.5 1.2v6.1c0 .7.5 1.3 1.2 1.5.4.1.9.2 1.5.2.6.1 1.3.1 2 .1 2.2 0 4-.4 5.6-1.1 1.1-1.1 2.4-2.2 3.4-3.7zM239.5 244.9c1.7 0 3.2-.2 4.5-.6 1.3-.4 2.4-.9 3.5-1.6.4-.3.7-.8.7-1.3v-6.1c0-.5-.3-1-.8-1.3-.5-.3-1.1-.2-1.5 0-.9.5-1.8 1-2.8 1.3-1 .3-1.9.5-2.9.5-.7 0-1.3-.2-1.7-.7-.5-.5-.7-1.6-.7-3.1s.3-2.6.8-3.3c.4-.6 1-.8 1.7-.8s1.4.1 2 .3c.7.2 1.5.5 2.4.9.4.2.8.2 1.2 0 .4-.2.7-.5.8-.8l2.3-5.7c.3-.7 0-1.5-.7-1.9-1.1-.6-2.4-1.1-3.7-1.4-1.3-.3-2.8-.5-4.2-.5-2.5 0-4.7.5-6.7 1.4-2 .9-3.7 2.4-4.8 4.4-1.2 1.9-1.7 4.4-1.7 7.4 0 4.4 1.2 7.7 3.5 9.8 1.9 2 5 3.1 8.8 3.1z"/><path class="st2" d="M269.5 221.2c-1.9-1.6-4.4-2.5-7.6-2.5-2.1 0-4 .2-5.8.5-1.8.4-3.4.9-4.8 1.7-.7.4-1 1.2-.7 1.9l2.2 5.1c.1.2.3.4.5.6-.7.3-1.4.6-1.9 1-2.1 1.4-3.1 3.7-3.1 6.6 0 2.9.8 5.1 2.4 6.6 1.6 1.4 3.5 2.2 5.9 2.2 1.4 0 2.5-.1 3.5-.4 1-.3 2-.7 2.8-1.3.3-.2.5-.4.8-.6l.6 1.1c.3.5.8.8 1.3.8h5.3c.8 0 1.5-.7 1.5-1.5v-14.6c0-3.1-1-5.5-2.9-7.2zM259.4 235c.1-.1.6-.4 2.1-.4h.2v.2c0 .5-.2.9-.5 1.2-.4.3-.8.5-1.4.5-.3 0-.5-.1-.6-.2 0 0-.1-.2-.1-.6 0-.4.2-.6.3-.7zm1.1-7.8c.3 0 .6 0 .8.1l-1.9.1h-.8c.7-.1 1.3-.2 1.9-.2zM289.8 218.8c-1.9 0-3.4.4-4.6 1.2-.4.3-.8.6-1.1.9l-.3-.8c-.2-.6-.8-1-1.4-1h-6.3c-.8 0-1.5.7-1.5 1.5v32c0 .8.7 1.5 1.5 1.5h7.7c.8 0 1.5-.7 1.5-1.5v-8.7c1.1.6 2.5.9 4.2.9 1.9 0 3.6-.5 5-1.6 1.5-1 2.6-2.6 3.4-4.6.8-1.9 1.2-4.3 1.2-7 0-4-.8-7.2-2.4-9.4-1.6-2.2-3.9-3.4-6.9-3.4zm-1.4 12.9c0 2.2-.3 3.1-.5 3.5-.2.4-.5.5-.9.5-.8 0-1-.3-1.1-.5-.2-.5-.5-1.5-.5-3.4v-.6c.1-1.7.3-2.5.5-3 .1-.1.2-.4 1-.4.5 0 .7.1 1 .5.1.3.5 1.2.5 3.4zM309.8 219.2h-.4c.1 0 .1-.1.1-.1.9-.5 2-1.6 2-4s-1.1-3.5-2-4.1c-1-.6-2.3-.9-3.6-.9-1.4 0-2.6.3-3.6.9-.9.5-1.9 1.6-1.9 4 0 2.3 1 3.5 1.9 4 .1 0 .1.1.2.1h-.4c-.8 0-1.5.7-1.5 1.5V243c0 .8.7 1.5 1.5 1.5h7.7c.8 0 1.5-.7 1.5-1.5v-22.3c0-.9-.6-1.5-1.5-1.5z"/><path class="st5" d="M106.9 276h6.3v8.7c-.9.3-1.9.5-2.8.7-1 .2-2.1.2-3.3.2-2.7 0-4.7-.8-6.1-2.4s-2.1-3.8-2.1-6.6c0-1.8.4-3.4 1.1-4.7s1.7-2.4 3.1-3.1 3-1.1 4.9-1.1c1 0 1.9.1 2.8.3s1.7.4 2.4.8l-1 2.2c-.6-.3-1.3-.5-2-.7s-1.5-.3-2.3-.3c-1.9 0-3.5.6-4.6 1.8s-1.7 2.8-1.7 4.9c0 1.3.2 2.5.6 3.5s1 1.8 1.9 2.4 2 .9 3.4.9c.7 0 1.3 0 1.8-.1s.9-.2 1.3-.3v-4.7h-3.7V276zM118.4 267.2c.4 0 .7.1 1 .3s.4.6.4 1.1-.1.9-.4 1.1-.6.4-1 .4-.8-.1-1.1-.4c-.3-.2-.4-.6-.4-1.1s.1-.9.4-1.1c.4-.1.7-.3 1.1-.3zm1.3 5v13.2h-2.6v-13.2h2.6zM128.5 283.5c.3 0 .7 0 1-.1.4-.1.7-.1.9-.2v2c-.3.1-.7.2-1.1.3-.5.1-.9.1-1.4.1-.7 0-1.4-.1-2-.4-.6-.2-1.1-.7-1.4-1.3-.4-.6-.5-1.4-.5-2.5v-7.3h-1.8V273l1.9-1 .9-2.8h1.6v3h3.8v2h-3.8v7.2c0 .7.2 1.2.5 1.6.4.4.8.5 1.4.5zM147 285.4h-2.6v-8h-8.3v8h-2.6V268h2.6v7.2h8.3V268h2.6v17.4zM162.7 272.2v13.2h-2.1l-.4-1.7h-.1c-.4.7-1 1.2-1.8 1.5-.7.3-1.5.5-2.4.5-1.5 0-2.7-.4-3.5-1.1s-1.2-2-1.2-3.6v-8.6h2.6v8.2c0 2 .9 3.1 2.7 3.1 1.4 0 2.3-.4 2.8-1.2s.8-1.9.8-3.4v-6.7h2.6v-.2zM169.3 271.3v1.5c0 .5-.1.9-.1 1.1h.1c.4-.6.9-1 1.5-1.4s1.5-.6 2.5-.6c1.6 0 2.9.6 3.8 1.7 1 1.1 1.5 2.8 1.5 5.1s-.5 4-1.5 5.1-2.3 1.7-3.8 1.7c-1 0-1.9-.2-2.5-.5-.6-.4-1.1-.8-1.5-1.3h-.2l-.5 1.6h-1.9v-18.5h2.6v4.5zm3.4 2.8c-1.3 0-2.1.4-2.6 1.1s-.7 1.9-.7 3.4v.2c0 1.5.2 2.7.7 3.5s1.4 1.2 2.7 1.2c1 0 1.8-.4 2.4-1.2.5-.8.8-2 .8-3.5-.1-3.1-1.2-4.7-3.3-4.7zM199.4 285.4l-1.9-5h-6.7l-1.9 5h-2.7l6.6-17.5h2.7l6.6 17.5h-2.7zm-4.4-12.2c0-.2-.1-.4-.3-.8-.1-.4-.2-.7-.4-1.1s-.2-.7-.3-1c-.1.5-.3 1-.4 1.6-.2.6-.3 1-.4 1.3l-1.8 4.9h5.2l-1.6-4.9zM209.5 285.6c-1.8 0-3.3-.5-4.4-1.6s-1.7-2.8-1.7-5.1c0-1.6.3-2.9.8-4 .5-1 1.3-1.8 2.2-2.2.9-.5 2-.7 3.2-.7.7 0 1.4.1 2.1.2.6.2 1.2.3 1.6.5l-.8 2.1c-.5-.2-.9-.3-1.5-.5-.5-.1-1-.2-1.5-.2-2.4 0-3.6 1.6-3.6 4.7 0 1.5.3 2.6.9 3.4s1.4 1.2 2.6 1.2c.7 0 1.4-.1 1.9-.2.6-.2 1.1-.4 1.5-.6v2.2c-.5.3-1 .5-1.5.6-.4.2-1 .2-1.8.2zM220.9 283.5c.3 0 .7 0 1-.1.4-.1.7-.1.9-.2v2c-.3.1-.7.2-1.1.3-.5.1-.9.1-1.4.1-.7 0-1.4-.1-2-.4-.6-.2-1.1-.7-1.4-1.3-.4-.6-.5-1.4-.5-2.5v-7.3h-1.8V273l1.9-1 .9-2.8h1.6v3h3.8v2H219v7.2c0 .7.2 1.2.5 1.6s.8.5 1.4.5zM226.8 267.2c.4 0 .7.1 1 .3s.4.6.4 1.1-.1.9-.4 1.1-.6.4-1 .4-.8-.1-1.1-.4c-.3-.2-.4-.6-.4-1.1s.1-.9.4-1.1c.3-.1.7-.3 1.1-.3zm1.2 5v13.2h-2.6v-13.2h2.6zM243.7 278.8c0 2.2-.6 3.9-1.7 5.1s-2.6 1.8-4.5 1.8c-1.2 0-2.2-.3-3.2-.8-.9-.5-1.6-1.3-2.2-2.3-.5-1-.8-2.2-.8-3.7 0-2.2.6-3.9 1.7-5 1.1-1.2 2.6-1.8 4.5-1.8 1.2 0 2.3.3 3.2.8s1.6 1.3 2.2 2.3c.5.9.8 2.1.8 3.6zm-9.7 0c0 1.5.3 2.6.8 3.5.6.8 1.5 1.2 2.7 1.2s2.1-.4 2.7-1.2.8-2 .8-3.5-.3-2.6-.9-3.5-1.5-1.2-2.7-1.2-2.1.4-2.7 1.2c-.4.9-.7 2-.7 3.5zM253.6 272c1.5 0 2.7.4 3.5 1.1.8.8 1.2 2 1.2 3.7v8.6h-2.6v-8.2c0-2-.9-3.1-2.7-3.1-1.4 0-2.3.4-2.8 1.2s-.8 1.9-.8 3.4v6.6h-2.6v-13.2h2l.4 1.8h.1c.4-.7 1-1.2 1.7-1.5 1-.2 1.8-.4 2.6-.4z"/><g style="enable-background:new"><path class="st7" d="M54.8 243h-7.7v-30.7h7.7V243zM64 211.7c1.1 0 2.1.2 2.9.7.8.5 1.2 1.4 1.2 2.7 0 1.3-.4 2.2-1.2 2.7-.8.5-1.8.7-2.9.7-1.1 0-2.1-.2-2.9-.7-.8-.5-1.2-1.4-1.2-2.7 0-1.4.4-2.3 1.2-2.7.9-.5 1.8-.7 2.9-.7zm3.9 9V243h-7.7v-22.3h7.7zM87.2 220.3c2.3 0 4.2.6 5.6 1.9 1.5 1.3 2.2 3.4 2.2 6.3V243h-7.7v-12.2c0-1.5-.2-2.6-.6-3.3-.4-.8-1.1-1.1-2.1-1.1-1.5 0-2.4.6-2.9 1.8-.5 1.2-.7 2.9-.7 5.1v9.8h-7.7v-22.3h5.8l1 2.9h.3c.7-1 1.6-1.9 2.8-2.5 1.1-.6 2.4-.9 4-.9zM111.2 237.3c.7 0 1.3-.1 1.9-.2.6-.1 1.2-.3 1.8-.5v5.6c-.8.4-1.7.6-2.7.9-.9.2-2.1.4-3.6.4s-2.7-.2-3.8-.7-1.9-1.2-2.6-2.4c-.6-1.1-.9-2.7-.9-4.7v-9.2h-2.7v-3.1l3.4-2.4 2-4.7h5v4.5h5.5v5.8H109v8.7c.1 1.3.8 2 2.2 2zM117 235.2v-6.1h11.1v6.1H117zM142.6 220.3c2.8 0 5 .7 6.6 2.1 1.6 1.4 2.4 3.4 2.4 6V243h-5.3l-1.5-2.9h-.2c-.6.8-1.3 1.4-1.9 1.9-.7.5-1.4.9-2.3 1.1-.9.2-1.9.3-3.1.3-1.9 0-3.5-.6-4.8-1.8-1.3-1.2-1.9-3-1.9-5.4 0-2.4.8-4.2 2.5-5.3 1.7-1.2 4.1-1.8 7.2-1.9l3.7-.1v-.3c0-1-.2-1.7-.7-2.1-.5-.4-1.1-.6-2-.6-.9 0-1.9.2-2.9.5-1.1.3-2.2.7-3.3 1.2l-2.2-5.1c1.3-.7 2.7-1.2 4.4-1.5 1.4-.6 3.2-.7 5.3-.7zm-.5 12.8c-1.4.1-2.4.3-3 .7-.6.4-.9 1.1-.9 1.9 0 .8.2 1.3.6 1.7.4.4.9.5 1.6.5.9 0 1.7-.3 2.4-.9.7-.6 1-1.4 1-2.3V233l-1.7.1zM173.4 236.1c0 1.4-.3 2.6-.9 3.8-.6 1.1-1.6 2-3 2.6s-3.2.9-5.5.9c-1.6 0-3-.1-4.3-.3-1.3-.2-2.5-.5-3.8-1V236c1.4.6 2.9 1.1 4.3 1.4s2.6.4 3.4.4c1.7 0 2.5-.4 2.5-1.1 0-.3-.1-.6-.4-.8-.3-.2-.7-.5-1.4-.8-.7-.3-1.7-.7-2.9-1.2-1.9-.8-3.2-1.7-4.2-2.7-.9-1-1.4-2.4-1.4-4.3 0-2.2.8-3.8 2.5-4.9 1.7-1.1 3.9-1.7 6.7-1.7 1.5 0 2.9.2 4.2.5 1.3.3 2.6.8 4 1.4l-2.1 5c-1.1-.5-2.2-.9-3.3-1.2-1.1-.3-2-.4-2.7-.4-1.3 0-1.9.3-1.9.9 0 .3.1.5.3.7.2.2.7.5 1.3.7.6.3 1.6.7 2.8 1.2 1.3.5 2.4 1.1 3.2 1.7.8.6 1.5 1.3 1.9 2.2.5.7.7 1.8.7 3.1zM174.9 220.7h8.1l3.8 12.8c.1.3.2.6.2 1.1.1.5.1.9.1 1.3h.2c.1-.5.1-1 .2-1.4.1-.4.2-.7.3-1l3.9-12.8h7.9l-8.8 23.7c-.7 1.8-1.5 3.3-2.4 4.6-.9 1.2-2 2.2-3.3 2.8-1.3.6-3 .9-4.9.9-.7 0-1.3 0-1.8-.1s-1-.1-1.3-.2v-6.1c.3.1.7.1 1.1.2.4.1.9.1 1.3.1 1.3 0 2.2-.4 2.8-1.1.6-.7 1.1-1.6 1.5-2.6l.1-.2-9-22zM216.2 220.3c2.3 0 4.2.6 5.6 1.9 1.5 1.3 2.2 3.4 2.2 6.3V243h-7.7v-12.2c0-1.5-.2-2.6-.6-3.3-.4-.8-1.1-1.1-2.1-1.1-1.5 0-2.4.6-2.9 1.8-.5 1.2-.7 2.9-.7 5.1v9.8h-7.7v-22.3h5.8l1 2.9h.3c.7-1 1.6-1.9 2.8-2.5 1.1-.6 2.5-.9 4-.9zM239.5 243.4c-3.4 0-6.1-.9-8.1-2.7-2-1.8-3-4.7-3-8.7 0-2.7.5-4.9 1.5-6.6 1-1.7 2.4-3 4.2-3.8s3.8-1.2 6-1.2c1.4 0 2.7.1 3.9.4s2.4.7 3.4 1.3l-2.3 5.7c-.9-.4-1.8-.7-2.6-1-.8-.2-1.6-.4-2.5-.4-1.2 0-2.1.5-2.8 1.4-.7.9-1.1 2.3-1.1 4.2 0 1.9.4 3.3 1.1 4.1.7.8 1.7 1.2 2.8 1.2 1.1 0 2.2-.2 3.3-.5s2.2-.8 3.2-1.5v6.1c-.9.6-2 1.1-3.1 1.4-1.1.4-2.4.6-3.9.6zM261.9 220.3c2.8 0 5 .7 6.6 2.1 1.6 1.4 2.4 3.4 2.4 6V243h-5.3l-1.5-2.9h-.2c-.6.8-1.3 1.4-1.9 1.9s-1.4.9-2.3 1.1-1.9.3-3.1.3c-1.9 0-3.5-.6-4.8-1.8-1.3-1.2-1.9-3-1.9-5.4 0-2.4.8-4.2 2.5-5.3 1.7-1.2 4.1-1.8 7.2-1.9l3.7-.1v-.3c0-1-.2-1.7-.7-2.1-.5-.4-1.1-.6-2-.6-.9 0-1.9.2-2.9.5-1.1.3-2.2.7-3.3 1.2l-2.2-5.1c1.3-.7 2.8-1.2 4.4-1.5 1.5-.6 3.3-.7 5.3-.7zm-.4 12.8c-1.4.1-2.4.3-3 .7-.6.4-.9 1.1-.9 1.9 0 .8.2 1.3.6 1.7.4.4.9.5 1.6.5.9 0 1.7-.3 2.4-.9.7-.6 1-1.4 1-2.3V233l-1.7.1zM289.8 220.3c2.5 0 4.4 1 5.8 3 1.4 2 2.1 4.8 2.1 8.5 0 2.5-.4 4.7-1.1 6.4-.7 1.7-1.7 3-2.9 3.9-1.2.9-2.6 1.3-4.2 1.3s-2.8-.3-3.7-.8c-.9-.6-1.6-1.1-2-1.7h-.2c.1.5.1 1.1.2 1.7.1.6.1 1.3.1 2.1v8.1h-7.7v-32h6.3l1.1 2.8h.4c.5-.9 1.3-1.6 2.2-2.3s2-1 3.6-1zm-2.9 6c-1.1 0-1.9.4-2.3 1.2-.4.8-.7 2-.7 3.6v.6c0 1.8.2 3.1.6 4.1.4.9 1.2 1.4 2.4 1.4 1 0 1.7-.4 2.2-1.3.5-.8.7-2.3.7-4.2 0-2-.3-3.3-.8-4.2-.4-.8-1.1-1.2-2.1-1.2zM306 211.7c1.1 0 2.1.2 2.9.7.8.5 1.2 1.4 1.2 2.7 0 1.3-.4 2.2-1.2 2.7-.8.5-1.8.7-2.9.7-1.1 0-2.1-.2-2.9-.7-.8-.5-1.2-1.4-1.2-2.7 0-1.4.4-2.3 1.2-2.7.8-.5 1.8-.7 2.9-.7zm3.8 9V243h-7.7v-22.3h7.7z"/></g></g></svg>
